<svg xmlns="http://www.w3.org/2000/svg" viewBox="0 0 256 256" width="256" height="256">
  <rect width="256" height="256" fill="#f8f5f0" rx="40" ry="40"/>
  <path d="M52 126c0-35 30-64 76-64s76 29 76 64c0 17-6 32-16 44H68c-10-12-16-27-16-44Z" fill="#f1ece1"/>
  <path d="M64 146h128c-3 25-30 46-64 46s-61-21-64-46Z" fill="#d65f4d"/>
  <path d="M86 176c12 8 28 12 46 12s34-4 46-12c-11 16-30 26-46 26s-35-10-46-26Z" fill="#c74c3c"/>
  <circle cx="94" cy="118" r="10" fill="#ffffff"/>
  <circle cx="126" cy="104" r="12" fill="#ffffff"/>
  <circle cx="154" cy="118" r="10" fill="#ffffff"/>
  <circle cx="110" cy="128" r="8" fill="#ffffff"/>
  <circle cx="140" cy="132" r="8" fill="#ffffff"/>
  <path d="M72 142c0-3 2-6 6-6h100c4 0 6 3 6 6s-2 6-6 6H78c-4 0-6-3-6-6Z" fill="#e5dfd3"/>
  <path d="M96 192h64c4 0 7 3 7 6 0 10-20 18-39 18s-39-8-39-18c0-3 3-6 7-6Z" fill="#b44334"/>
</svg>
